<?xml version="1.0" encoding="utf-8"?>
<!-- Generator: Adobe Illustrator 19.2.1, SVG Export Plug-In . SVG Version: 6.00 Build 0)  -->
<svg version="1.1" id="layer" xmlns="http://www.w3.org/2000/svg" xmlns:xlink="http://www.w3.org/1999/xlink" x="0px" y="0px"
	 viewBox="0 0 652 652" style="enable-background:new 0 0 652 652;" xml:space="preserve">
<style type="text/css">
	.st0{fill:#004896;}
</style>
<g>
	<path class="st0" d="M534.2,310.1c0-15.5,11.2-22.5,22.9-22.5h16.3v18.6h-10.7c-3.5,0-6,2.1-6,6.4v43.2h-22.5V310.1z M477.9,321.7
		c0,9.9,6.4,16.7,15.3,16.7c8.9,0,15.1-6.8,15.1-16.7s-6.2-16.7-15.1-16.7C484.3,305.1,477.9,311.9,477.9,321.7 M456.6,321.7
		c0-20.5,16.3-35.5,36.6-35.5c20.2,0,36.4,14.9,36.4,35.5s-16.1,35.5-36.4,35.5C472.7,357.2,456.6,342.3,456.6,321.7 M426,287.6
		v19.6h-5.8c-8.1,0-13.4,5.8-13.4,14.9c0,9.5,5.4,15.1,14.9,15.1h8.1v-77.2h22.5v95.8H420c-20.4,0-35.7-13.8-35.7-34.1
		c0-21.7,16.7-34.1,33.9-34.1H426z M577.4,282.6c0-15.5,11.2-22.5,22.9-22.5h20v18h-14c-3.7,0-6,2.1-6,6.4v3.5h20v18.2h-20v49.6
		h-22.9V282.6z M379.5,355.9h-21.7V314c0-4.8-2.7-7.4-7-7.4h-11.4v49.2h-21.7v-68.2h38c12.6,0,23.9,7,23.9,23.5V355.9z M41.7,325.4
		c0.8,7.9,7.6,12.6,15.5,12.6c9.5,0,14.9-5.4,14.9-5.4l11.6,16.1c0,0-8.9,8.7-26.6,8.7c-20.2,0-37-14.3-37-35.7
		c0-21.1,16.3-35.5,36.4-35.5c20.5,0,35.7,13.4,35.7,34.5v4.7H41.7z M71.6,318.3c-0.4-8.1-6.4-14-14.7-14s-14.5,6-15.1,14H71.6z
		 M195.5,355.9v-19.6h5.8c8.1,0,13.4-5.8,13.4-14.9c0-9.5-5.4-15.1-14.9-15.1h-8.1v77.2h-22.5v-95.8h32.4
		c20.4,0,35.7,13.8,35.7,34.1c0,21.7-16.7,34.1-33.9,34.1H195.5z M123.6,355.9v-19.6h5.8c8.1,0,13.4-5.8,13.4-14.9
		c0-9.5-5.4-15.1-14.9-15.1h-8.1v77.2H97.2v-95.8h32.4c20.3,0,35.7,13.8,35.7,34.1c0,21.7-16.7,34.1-33.9,34.1H123.6z M262.6,325.4
		c0.8,7.9,7.6,12.6,15.5,12.6c9.5,0,14.9-5.4,14.9-5.4l11.6,16.1c0,0-8.9,8.7-26.6,8.7c-20.2,0-37-14.3-37-35.7
		c0-21.1,16.3-35.5,36.4-35.5c20.5,0,35.7,13.4,35.7,34.5v4.7H262.6z M292.4,318.3c-0.4-8.1-6.4-14-14.7-14c-8.3,0-14.5,6-15.1,14
		H292.4z"/>
</g>
</svg>
